<?xml version="1.0" encoding="utf-8"?>
<!-- Generator: Adobe Illustrator 24.1.0, SVG Export Plug-In . SVG Version: 6.00 Build 0)  -->
<svg version="1.1" id="Ebene_1" xmlns="http://www.w3.org/2000/svg" xmlns:xlink="http://www.w3.org/1999/xlink" x="0px" y="0px"
	 viewBox="0 0 105.71 32.05" style="enable-background:new 0 0 105.71 32.05;" xml:space="preserve">
<style type="text/css">
	.st0{clip-path:url(#SVGID_2_);}
</style>
<g>
	<defs>
		<rect id="SVGID_1_" x="5.45" y="4.56" width="77.49" height="22.03"/>
	</defs>
	<clipPath id="SVGID_2_">
		<use xlink:href="#SVGID_1_"  style="overflow:visible;"/>
	</clipPath>
	<path class="st0" d="M51.36,18.61h-3v0.45c0.85,0.04,1.12,0.22,1.19,0.72c0.04,0.35,0.1,0.9,0.1,1.96v2.36h-0.04l-4.71-5.5h-2.12
		v0.45c0.52,0.04,0.8,0.13,1.03,0.42c0.23,0.29,0.25,0.43,0.25,1.25v2.52c0,1.03-0.07,1.57-0.11,1.97
		c-0.06,0.52-0.36,0.68-1.02,0.73v0.45h2.99v-0.45c-0.85-0.05-1.11-0.23-1.17-0.77c-0.04-0.36-0.08-0.9-0.08-1.93v-2.76h0.02
		l4.98,6.02h0.59v-4.78c0-1.06,0.05-1.61,0.1-1.98c0.06-0.5,0.34-0.67,1-0.7V18.61z M37.4,22.56v-2.85c0-0.26,0.03-0.4,0.11-0.47
		c0.08-0.07,0.25-0.13,0.59-0.13c0.76,0,1.56,0.44,1.56,1.69c0,0.61-0.18,1.08-0.61,1.43c-0.28,0.23-0.67,0.32-1.21,0.32H37.4z
		 M42.39,26.1c-0.28-0.1-0.52-0.22-0.79-0.52c-0.25-0.26-0.49-0.6-0.92-1.25c-0.36-0.55-0.83-1.34-1.01-1.7
		c0.84-0.35,1.5-0.95,1.5-1.99c0-0.76-0.34-1.28-0.82-1.61c-0.48-0.31-1.08-0.42-2.09-0.42h-3.28v0.45
		c0.91,0.07,1.01,0.17,1.01,1.14v4.6c0,0.97-0.12,1.07-1.06,1.14v0.47h3.5v-0.47c-0.94-0.07-1.05-0.17-1.05-1.14v-1.74h0.31
		c0.47,0,0.67,0.14,0.86,0.48c0.35,0.6,0.71,1.3,1.07,1.84c0.52,0.76,0.98,1.06,2.28,1.13c0.14,0,0.29,0.01,0.4,0.01L42.39,26.1z
		 M33.7,24.33c-0.2,0.52-0.42,0.91-0.64,1.15c-0.28,0.3-0.69,0.38-1.37,0.38c-0.51,0-0.94-0.02-1.17-0.13
		c-0.23-0.13-0.29-0.4-0.29-0.96V22.7h0.91c1.02,0,1.14,0.05,1.3,0.92h0.48v-2.45h-0.48c-0.16,0.84-0.28,0.91-1.31,0.91h-0.9v-2.53
		c0-0.38,0.04-0.41,0.47-0.41h0.73c0.71,0,1.03,0.08,1.21,0.31c0.18,0.23,0.31,0.56,0.43,1.02l0.48-0.07
		c-0.05-0.72-0.11-1.57-0.12-1.8h-5.64v0.45c0.9,0.07,1.01,0.13,1.01,1.15v4.59c0,0.98-0.11,1.07-1.16,1.14v0.47h6.09
		c0.11-0.35,0.35-1.5,0.42-1.99L33.7,24.33z M26.51,24.11c-0.25,0.71-0.46,1.08-0.73,1.33c-0.34,0.34-1.03,0.41-2.14,0.41
		c-0.77,0-1.24-0.02-1.63-0.07c1.55-2.36,3.1-4.65,4.66-6.97l-0.1-0.19h-4.86c-0.36,0-0.49-0.02-0.66-0.3h-0.36
		c-0.02,0.59-0.1,1.44-0.14,2.38H21c0.13-0.55,0.31-0.9,0.47-1.1c0.19-0.28,0.41-0.41,1.62-0.41h1.68
		c-1.57,2.34-3.17,4.69-4.76,7.01l0.14,0.23h6.36c0.13-0.43,0.36-1.63,0.46-2.2L26.51,24.11z M19.86,18.61h-3.05v0.45
		c0.84,0.05,1.12,0.24,1.19,0.67c0.06,0.36,0.11,0.82,0.11,1.75v1.14c0,1.99-0.64,3.14-2.12,3.14c-1.33,0-2.05-1.01-2.05-2.88v-2.62
		c0-1.06,0.11-1.14,1.02-1.21v-0.45h-3.49v0.45c0.94,0.08,1.04,0.16,1.04,1.21v2.86c0,1.42,0.35,2.32,1.04,2.84
		c0.56,0.44,1.3,0.61,2.08,0.61c0.83,0,1.64-0.29,2.21-0.86c0.69-0.72,0.91-1.75,0.91-3.08v-1.15c0-0.94,0.04-1.38,0.08-1.74
		c0.06-0.44,0.36-0.65,1.03-0.68V18.61z M11.19,24.27c-0.2,0.59-0.43,0.97-0.65,1.21c-0.29,0.31-0.71,0.38-1.24,0.38
		c-0.41,0-0.76-0.02-0.98-0.12c-0.24-0.11-0.29-0.35-0.29-0.92v-4.61c0-1.01,0.1-1.07,1.06-1.15v-0.45H5.54v0.45
		c0.96,0.08,1.07,0.16,1.07,1.15v4.57c0,1-0.12,1.08-1.15,1.15v0.47h5.77c0.1-0.34,0.35-1.52,0.44-2.02L11.19,24.27z"/>
	<path class="st0" d="M82.95,8.61c-0.06-0.77-0.13-1.79-0.13-2.3h-0.32c-0.19,0.23-0.34,0.3-0.66,0.3h-4.81
		c-0.35,0-0.49-0.04-0.67-0.3h-0.32C76,6.93,75.93,7.8,75.88,8.65h0.48c0.16-0.58,0.28-0.97,0.46-1.16
		c0.17-0.22,0.37-0.34,1.35-0.34h0.54v5.65c0,0.98-0.11,1.07-1.17,1.14v0.47h3.82v-0.47c-1.1-0.07-1.22-0.17-1.22-1.14V7.15h0.66
		c0.76,0,1.01,0.07,1.21,0.31c0.19,0.2,0.34,0.56,0.47,1.19L82.95,8.61z M71.38,4.56c-0.41,0-0.76,0.34-0.76,0.77
		c0,0.41,0.35,0.76,0.76,0.76c0.44,0,0.77-0.35,0.77-0.76c0-0.43-0.32-0.77-0.76-0.77H71.38z M73.89,4.56
		c-0.41,0-0.77,0.34-0.77,0.77c0,0.41,0.36,0.76,0.77,0.76c0.43,0,0.77-0.35,0.77-0.76c0-0.43-0.34-0.77-0.76-0.77H73.89z
		 M73.17,11.17h-1.98c0.32-0.9,0.65-1.82,1-2.74h0.04L73.17,11.17z M76.58,14.41v-0.47c-0.79-0.08-0.94-0.2-1.32-1.24
		c-0.78-2.05-1.55-4.21-2.3-6.27l-0.6,0.14l-2.46,6.17c-0.4,1.01-0.55,1.1-1.36,1.2v0.47h2.72v-0.47c-0.86-0.08-0.91-0.23-0.72-0.84
		c0.15-0.47,0.3-0.9,0.43-1.27h2.41c0.2,0.5,0.38,1.03,0.53,1.42c0.16,0.49,0.08,0.6-0.62,0.7v0.47H76.58z M69.33,8.61
		c-0.06-0.77-0.13-1.79-0.13-2.3h-0.32c-0.19,0.23-0.34,0.3-0.66,0.3H63.4c-0.35,0-0.49-0.04-0.67-0.3H62.4
		c-0.02,0.62-0.1,1.49-0.14,2.34h0.48c0.16-0.58,0.28-0.97,0.46-1.16c0.17-0.22,0.37-0.34,1.34-0.34h0.54v5.65
		c0,0.98-0.11,1.07-1.16,1.14v0.47h3.81v-0.47c-1.1-0.07-1.22-0.17-1.22-1.14V7.15h0.66c0.76,0,1.01,0.07,1.21,0.31
		c0.19,0.2,0.34,0.56,0.47,1.19L69.33,8.61z M61.35,14.41v-0.47c-0.94-0.07-1.03-0.14-1.03-1.14V8.22c0-1,0.1-1.07,1.03-1.15V6.61
		h-3.51v0.45c0.95,0.09,1.04,0.16,1.04,1.15v4.59c0,1-0.11,1.07-1.04,1.14v0.47H61.35z M56.45,8.47c-0.11-0.79-0.18-1.31-0.23-1.74
		c-0.3-0.1-0.95-0.3-1.64-0.3c-1.67,0-2.69,1.01-2.69,2.28c0,1.21,0.96,1.85,2.08,2.4c0.91,0.46,1.49,0.9,1.49,1.66
		c0,0.79-0.48,1.3-1.27,1.3c-1.19,0-1.82-1.3-2.04-2.03l-0.47,0.13c0.1,0.73,0.25,1.69,0.35,1.98c0.14,0.07,0.36,0.17,0.68,0.26
		c0.34,0.11,0.76,0.18,1.22,0.18c1.72,0,2.87-1.04,2.87-2.4c0-1.24-0.95-1.87-2.13-2.45c-1.02-0.49-1.51-0.89-1.51-1.61
		c0-0.65,0.47-1.19,1.22-1.19c1.01,0,1.38,0.86,1.61,1.62L56.45,8.47z M46.25,10.56V7.71c0-0.26,0.02-0.4,0.11-0.47
		c0.08-0.07,0.25-0.13,0.59-0.13c0.76,0,1.56,0.44,1.56,1.69c0,0.61-0.18,1.08-0.61,1.43c-0.28,0.23-0.67,0.32-1.21,0.32H46.25z
		 M51.24,14.1c-0.28-0.1-0.52-0.22-0.79-0.52c-0.25-0.26-0.49-0.6-0.92-1.25c-0.36-0.55-0.83-1.34-1.01-1.7
		c0.84-0.35,1.5-0.95,1.5-1.99c0-0.76-0.33-1.28-0.81-1.61c-0.48-0.31-1.08-0.42-2.09-0.42h-3.27v0.46
		c0.91,0.07,1.01,0.17,1.01,1.14v4.6c0,0.97-0.12,1.07-1.06,1.14v0.47h3.5v-0.47c-0.94-0.07-1.05-0.17-1.05-1.14v-1.74h0.31
		c0.47,0,0.67,0.14,0.86,0.48c0.35,0.6,0.71,1.3,1.07,1.83c0.51,0.76,0.98,1.06,2.28,1.13c0.14,0,0.29,0.01,0.4,0.01L51.24,14.1z
		 M42.38,12.33c-0.2,0.52-0.42,0.91-0.64,1.15c-0.28,0.3-0.69,0.38-1.37,0.38c-0.5,0-0.94-0.02-1.16-0.13
		c-0.23-0.13-0.29-0.4-0.29-0.96V10.7h0.91c1.02,0,1.14,0.05,1.3,0.93h0.48V9.18h-0.48c-0.16,0.84-0.28,0.91-1.31,0.91h-0.9V7.56
		c0-0.38,0.04-0.41,0.47-0.41h0.73c0.71,0,1.03,0.09,1.21,0.31c0.18,0.23,0.31,0.56,0.43,1.02l0.48-0.07
		c-0.05-0.72-0.11-1.57-0.12-1.8h-5.64v0.45c0.9,0.07,1.01,0.13,1.01,1.15v4.58c0,0.99-0.11,1.07-1.16,1.14v0.47h6.09
		c0.11-0.35,0.35-1.5,0.42-1.99L42.38,12.33z M35.91,6.61h-2.85v0.47c0.98,0.11,1.01,0.25,0.74,1.01c-0.3,0.96-0.91,2.58-1.62,4.44
		h-0.04c-0.52-1.32-1.45-3.74-1.81-4.73c-0.19-0.51-0.18-0.62,0.7-0.72V6.61h-3.4v0.47c0.73,0.07,0.93,0.2,1.28,1.07
		c0.58,1.39,1.67,4.2,2.47,6.38h0.6c0.92-2.47,2.09-5.32,2.44-6.14c0.47-1.1,0.69-1.22,1.49-1.31V6.61z M27.02,14.41v-0.47
		c-0.94-0.07-1.03-0.14-1.03-1.14V8.22c0-1,0.1-1.07,1.03-1.15V6.61H23.5v0.45c0.95,0.09,1.04,0.16,1.04,1.15v4.59
		c0,1-0.11,1.07-1.04,1.14v0.47H27.02z M22.8,6.61h-3v0.45c0.85,0.04,1.12,0.22,1.19,0.72c0.04,0.35,0.1,0.9,0.1,1.96v2.36h-0.04
		l-4.71-5.5h-2.12v0.45c0.52,0.04,0.8,0.13,1.03,0.42c0.23,0.29,0.25,0.43,0.25,1.25v2.52c0,1.03-0.07,1.57-0.11,1.97
		c-0.06,0.52-0.36,0.68-1.02,0.73v0.45h2.99v-0.45c-0.85-0.05-1.1-0.23-1.16-0.77c-0.04-0.36-0.08-0.9-0.08-1.93V8.49h0.02
		l4.98,6.02h0.59V9.74c0-1.06,0.05-1.61,0.1-1.98c0.06-0.5,0.34-0.67,1-0.7V6.61z M13.85,6.61h-3.05v0.45
		c0.84,0.05,1.12,0.24,1.19,0.67c0.06,0.36,0.11,0.82,0.11,1.75v1.14c0,1.99-0.64,3.15-2.12,3.15c-1.33,0-2.05-1.01-2.05-2.88V8.28
		c0-1.06,0.11-1.14,1.02-1.21V6.61H5.45v0.45C6.39,7.15,6.5,7.22,6.5,8.28v2.86c0,1.42,0.35,2.32,1.04,2.85
		c0.56,0.44,1.3,0.61,2.08,0.61c0.83,0,1.64-0.29,2.21-0.86c0.7-0.72,0.91-1.75,0.91-3.09V9.49c0-0.94,0.04-1.38,0.08-1.74
		c0.06-0.44,0.36-0.65,1.03-0.69V6.61z"/>
</g>
</svg>
