<?xml version="1.0" encoding="utf-8"?>
<!-- Generator: Adobe Illustrator 24.1.0, SVG Export Plug-In . SVG Version: 6.00 Build 0)  -->
<svg version="1.1" id="Ebene_1" xmlns="http://www.w3.org/2000/svg" xmlns:xlink="http://www.w3.org/1999/xlink" x="0px" y="0px"
	 viewBox="0 0 170.53 58.8" style="enable-background:new 0 0 170.53 58.8;" xml:space="preserve">
<style type="text/css">
	.st0{clip-path:url(#SVGID_2_);}
</style>
<g>
	<defs>
		<rect id="SVGID_1_" x="8.05" y="7.35" width="154.99" height="44.06"/>
	</defs>
	<clipPath id="SVGID_2_">
		<use xlink:href="#SVGID_1_"  style="overflow:visible;"/>
	</clipPath>
	<path class="st0" d="M99.87,35.45h-6v0.91c1.7,0.07,2.23,0.43,2.38,1.44c0.07,0.7,0.19,1.8,0.19,3.91v4.73h-0.07l-9.41-10.99h-4.25
		v0.91c1.03,0.07,1.61,0.26,2.06,0.84c0.46,0.58,0.5,0.86,0.5,2.5v5.04c0,2.06-0.14,3.14-0.22,3.94c-0.12,1.03-0.72,1.37-2.04,1.46
		v0.91H89v-0.91c-1.7-0.1-2.21-0.46-2.33-1.54c-0.07-0.72-0.17-1.8-0.17-3.86v-5.52h0.05l9.96,12.05h1.18v-9.55
		c0-2.11,0.1-3.22,0.19-3.96c0.12-1.01,0.67-1.34,1.99-1.39V35.45z M71.93,43.35v-5.69c0-0.53,0.05-0.79,0.22-0.94
		c0.17-0.14,0.5-0.26,1.18-0.26c1.51,0,3.12,0.89,3.12,3.38c0,1.22-0.36,2.16-1.22,2.86c-0.55,0.46-1.34,0.65-2.42,0.65H71.93z
		 M81.92,50.43c-0.55-0.19-1.03-0.43-1.58-1.03c-0.5-0.53-0.98-1.2-1.85-2.5c-0.72-1.1-1.66-2.69-2.02-3.41c1.68-0.7,3-1.9,3-3.98
		c0-1.51-0.67-2.57-1.63-3.22c-0.96-0.62-2.16-0.84-4.18-0.84h-6.55v0.91c1.82,0.14,2.02,0.34,2.02,2.28v9.19
		c0,1.94-0.24,2.14-2.11,2.28v0.94h7.01v-0.94c-1.87-0.14-2.09-0.34-2.09-2.28v-3.48h0.62c0.94,0,1.34,0.29,1.73,0.96
		c0.7,1.2,1.42,2.59,2.14,3.67c1.03,1.51,1.97,2.11,4.56,2.26c0.29,0,0.58,0.02,0.79,0.02L81.92,50.43z M64.54,46.9
		c-0.41,1.03-0.84,1.82-1.27,2.3c-0.55,0.6-1.39,0.77-2.74,0.77c-1.01,0-1.87-0.05-2.33-0.26c-0.46-0.26-0.58-0.79-0.58-1.92v-4.15
		h1.82c2.04,0,2.28,0.1,2.59,1.85H63v-4.9h-0.96c-0.31,1.68-0.55,1.82-2.62,1.82h-1.8v-5.06c0-0.77,0.07-0.82,0.94-0.82h1.46
		c1.42,0,2.06,0.17,2.42,0.62c0.36,0.46,0.62,1.13,0.86,2.04l0.96-0.14c-0.1-1.44-0.22-3.14-0.24-3.6H52.76v0.91
		c1.8,0.14,2.02,0.26,2.02,2.3v9.17c0,1.97-0.22,2.14-2.33,2.28v0.94h12.19c0.22-0.7,0.7-3,0.84-3.98L64.54,46.9z M50.17,46.45
		c-0.5,1.42-0.91,2.16-1.46,2.66c-0.67,0.67-2.06,0.82-4.27,0.82c-1.54,0-2.47-0.05-3.26-0.14c3.1-4.73,6.19-9.29,9.31-13.94
		l-0.19-0.38h-9.72c-0.72,0-0.98-0.05-1.32-0.6h-0.72c-0.05,1.18-0.19,2.88-0.29,4.75h0.91c0.26-1.1,0.62-1.8,0.94-2.21
		c0.38-0.55,0.82-0.82,3.24-0.82h3.36c-3.14,4.68-6.34,9.38-9.53,14.02l0.29,0.46h12.72c0.26-0.86,0.72-3.26,0.91-4.39L50.17,46.45z
		 M36.87,35.45h-6.1v0.91c1.68,0.1,2.23,0.48,2.38,1.34c0.12,0.72,0.22,1.63,0.22,3.5v2.28c0,3.98-1.27,6.29-4.25,6.29
		c-2.66,0-4.1-2.02-4.1-5.76v-5.23c0-2.11,0.22-2.28,2.04-2.42v-0.91h-6.98v0.91c1.87,0.17,2.09,0.31,2.09,2.42v5.71
		c0,2.83,0.7,4.63,2.09,5.69c1.13,0.89,2.59,1.22,4.15,1.22c1.66,0,3.29-0.58,4.42-1.73c1.39-1.44,1.82-3.5,1.82-6.17v-2.3
		c0-1.87,0.07-2.76,0.17-3.48c0.12-0.89,0.72-1.3,2.06-1.37V35.45z M19.52,46.78c-0.41,1.18-0.86,1.94-1.3,2.42
		c-0.58,0.62-1.42,0.77-2.47,0.77c-0.82,0-1.51-0.05-1.97-0.24c-0.48-0.22-0.58-0.7-0.58-1.85v-9.22c0-2.02,0.19-2.14,2.11-2.3
		v-0.91h-7.1v0.91c1.92,0.17,2.14,0.31,2.14,2.3v9.14c0,1.99-0.24,2.16-2.3,2.3v0.94h11.54c0.19-0.67,0.7-3.05,0.89-4.03
		L19.52,46.78z"/>
	<path class="st0" d="M163.03,15.46c-0.12-1.54-0.26-3.58-0.26-4.61h-0.65c-0.38,0.46-0.67,0.6-1.32,0.6h-9.62
		c-0.7,0-0.98-0.07-1.34-0.6h-0.65c-0.05,1.25-0.19,2.98-0.29,4.68h0.96c0.31-1.15,0.55-1.94,0.91-2.33
		c0.34-0.43,0.74-0.67,2.69-0.67h1.08v11.3c0,1.97-0.22,2.14-2.33,2.28v0.94h7.63v-0.94c-2.21-0.14-2.45-0.34-2.45-2.28v-11.3h1.32
		c1.51,0,2.02,0.14,2.42,0.62c0.38,0.41,0.67,1.13,0.94,2.38L163.03,15.46z M139.9,7.35c-0.82,0-1.51,0.67-1.51,1.54
		c0,0.82,0.7,1.51,1.51,1.51c0.89,0,1.54-0.7,1.54-1.51c0-0.86-0.65-1.54-1.51-1.54H139.9z M144.91,7.35
		c-0.82,0-1.54,0.67-1.54,1.54c0,0.82,0.72,1.51,1.54,1.51c0.86,0,1.54-0.7,1.54-1.51c0-0.86-0.67-1.54-1.51-1.54H144.91z
		 M143.47,20.57h-3.96c0.65-1.8,1.3-3.65,1.99-5.47h0.07L143.47,20.57z M150.29,27.05v-0.94c-1.58-0.17-1.87-0.41-2.64-2.47
		c-1.56-4.1-3.1-8.42-4.61-12.55l-1.2,0.29l-4.92,12.34c-0.79,2.02-1.1,2.21-2.71,2.4v0.94h5.45v-0.94
		c-1.73-0.17-1.82-0.46-1.44-1.68c0.29-0.94,0.6-1.8,0.86-2.54h4.82c0.41,1.01,0.77,2.06,1.06,2.83c0.31,0.98,0.17,1.2-1.25,1.39
		v0.94H150.29z M135.8,15.46c-0.12-1.54-0.26-3.58-0.26-4.61h-0.65c-0.38,0.46-0.67,0.6-1.32,0.6h-9.62c-0.7,0-0.98-0.07-1.34-0.6
		h-0.65c-0.05,1.25-0.19,2.98-0.29,4.68h0.96c0.31-1.15,0.55-1.94,0.91-2.33c0.34-0.43,0.74-0.67,2.69-0.67h1.08v11.3
		c0,1.97-0.22,2.14-2.33,2.28v0.94h7.63v-0.94c-2.21-0.14-2.45-0.34-2.45-2.28v-11.3h1.32c1.51,0,2.02,0.14,2.42,0.62
		c0.38,0.41,0.67,1.13,0.94,2.38L135.8,15.46z M119.84,27.05v-0.94c-1.87-0.14-2.06-0.29-2.06-2.28v-9.17c0-1.99,0.19-2.14,2.06-2.3
		v-0.91h-7.03v0.91c1.9,0.17,2.09,0.31,2.09,2.3v9.17c0,1.99-0.22,2.14-2.09,2.28v0.94H119.84z M110.04,15.17
		c-0.22-1.58-0.36-2.62-0.46-3.48c-0.6-0.19-1.9-0.6-3.29-0.6c-3.34,0-5.38,2.02-5.38,4.56c0,2.42,1.92,3.7,4.15,4.8
		c1.82,0.91,2.98,1.8,2.98,3.31c0,1.58-0.96,2.59-2.54,2.59c-2.38,0-3.65-2.59-4.08-4.06l-0.94,0.26c0.19,1.46,0.5,3.38,0.7,3.96
		c0.29,0.14,0.72,0.34,1.37,0.53c0.67,0.22,1.51,0.36,2.45,0.36c3.43,0,5.74-2.09,5.74-4.8c0-2.47-1.9-3.74-4.27-4.9
		c-2.04-0.98-3.02-1.78-3.02-3.22c0-1.3,0.94-2.38,2.45-2.38c2.02,0,2.76,1.73,3.22,3.24L110.04,15.17z M89.64,19.35v-5.69
		c0-0.53,0.05-0.79,0.22-0.94c0.17-0.14,0.5-0.26,1.18-0.26c1.51,0,3.12,0.89,3.12,3.38c0,1.22-0.36,2.16-1.22,2.86
		c-0.55,0.46-1.34,0.65-2.42,0.65H89.64z M99.63,26.43c-0.55-0.19-1.03-0.43-1.58-1.03c-0.5-0.53-0.98-1.2-1.85-2.5
		c-0.72-1.1-1.66-2.69-2.02-3.41c1.68-0.7,3-1.9,3-3.98c0-1.51-0.67-2.57-1.63-3.22c-0.96-0.62-2.16-0.84-4.18-0.84h-6.55v0.91
		c1.82,0.14,2.02,0.34,2.02,2.28v9.19c0,1.94-0.24,2.14-2.11,2.28v0.94h7.01v-0.94c-1.87-0.14-2.09-0.34-2.09-2.28v-3.48h0.62
		c0.94,0,1.34,0.29,1.73,0.96c0.7,1.2,1.42,2.59,2.14,3.67c1.03,1.51,1.97,2.11,4.56,2.26c0.29,0,0.58,0.02,0.79,0.02L99.63,26.43z
		 M81.89,22.9c-0.41,1.03-0.84,1.82-1.27,2.3c-0.55,0.6-1.39,0.77-2.74,0.77c-1.01,0-1.87-0.05-2.33-0.26
		c-0.46-0.26-0.58-0.79-0.58-1.92v-4.15h1.82c2.04,0,2.28,0.1,2.59,1.85h0.96v-4.9H79.4c-0.31,1.68-0.55,1.82-2.62,1.82h-1.8v-5.06
		c0-0.77,0.07-0.82,0.94-0.82h1.46c1.42,0,2.06,0.17,2.42,0.62s0.62,1.13,0.86,2.04l0.96-0.14c-0.1-1.44-0.22-3.14-0.24-3.6H70.11
		v0.91c1.8,0.14,2.02,0.26,2.02,2.3v9.17c0,1.97-0.22,2.14-2.33,2.28v0.94h12.19c0.22-0.7,0.7-3,0.84-3.98L81.89,22.9z M68.96,11.45
		h-5.71v0.94c1.97,0.22,2.02,0.5,1.49,2.02c-0.6,1.92-1.82,5.16-3.24,8.88h-0.07c-1.03-2.64-2.9-7.49-3.62-9.46
		c-0.38-1.03-0.36-1.25,1.39-1.44v-0.94H52.4v0.94c1.46,0.14,1.87,0.41,2.57,2.14c1.15,2.78,3.34,8.4,4.94,12.77h1.2
		c1.85-4.94,4.18-10.63,4.87-12.29c0.94-2.21,1.39-2.45,2.98-2.62V11.45z M51.17,27.05v-0.94c-1.87-0.14-2.06-0.29-2.06-2.28v-9.17
		c0-1.99,0.19-2.14,2.06-2.3v-0.91h-7.03v0.91c1.9,0.17,2.09,0.31,2.09,2.3v9.17c0,1.99-0.22,2.14-2.09,2.28v0.94H51.17z
		 M42.75,11.45h-6v0.91c1.7,0.07,2.23,0.43,2.38,1.44c0.07,0.7,0.19,1.8,0.19,3.91v4.73h-0.07l-9.41-10.99h-4.25v0.91
		c1.03,0.07,1.61,0.26,2.06,0.84c0.46,0.58,0.5,0.86,0.5,2.5v5.04c0,2.06-0.14,3.14-0.22,3.94c-0.12,1.03-0.72,1.37-2.04,1.46v0.91
		h5.98v-0.91c-1.7-0.1-2.21-0.46-2.33-1.54c-0.07-0.72-0.17-1.8-0.17-3.86v-5.52h0.05l9.96,12.05h1.18v-9.55
		c0-2.11,0.1-3.22,0.19-3.96c0.12-1.01,0.67-1.34,1.99-1.39V11.45z M24.85,11.45h-6.1v0.91c1.68,0.1,2.23,0.48,2.38,1.34
		c0.12,0.72,0.22,1.63,0.22,3.5v2.28c0,3.98-1.27,6.29-4.25,6.29c-2.66,0-4.1-2.02-4.1-5.76v-5.23c0-2.11,0.22-2.28,2.04-2.42v-0.91
		H8.05v0.91c1.87,0.17,2.09,0.31,2.09,2.42v5.71c0,2.83,0.7,4.63,2.09,5.69c1.13,0.89,2.59,1.22,4.15,1.22
		c1.66,0,3.29-0.58,4.42-1.73c1.39-1.44,1.82-3.5,1.82-6.17v-2.3c0-1.87,0.07-2.76,0.17-3.48c0.12-0.89,0.72-1.3,2.06-1.37V11.45z"
		/>
</g>
</svg>
